<?xml version="1.0" standalone="no"?><!DOCTYPE svg PUBLIC "-//W3C//DTD SVG 1.1//EN" "http://www.w3.org/Graphics/SVG/1.1/DTD/svg11.dtd"><svg t="1568277961961" class="icon" viewBox="0 0 1024 1024" version="1.1" xmlns="http://www.w3.org/2000/svg" p-id="4381" xmlns:xlink="http://www.w3.org/1999/xlink" width="200" height="200"><defs><style type="text/css"></style></defs><path d="M815.2576 859.4944l-80.8448-119.0912a20.48 20.48 0 0 0-16.9472-8.96H313.8048a20.48 20.48 0 0 0-16.8448 8.96l-80.9472 119.0912a20.48 20.48 0 0 0 16.9472 32h565.3504a20.48 20.48 0 0 0 16.9472-32z m-16.9472 11.52H232.96l80.8448-119.0912h403.6608l80.9472 119.04z" fill="#F6D95F" p-id="4382"></path><path d="M832.2048 847.9744l-80.8448-119.0912a40.96 40.96 0 0 0-33.8944-17.92H313.8048a40.96 40.96 0 0 0-33.8944 17.92l-80.8448 119.0912a40.96 40.96 0 0 0 33.8944 64h565.3504a40.96 40.96 0 0 0 33.8944-64z m-33.8944 23.04H232.96l80.8448-119.0912h403.6608l80.9472 119.04z" fill="#692F76" p-id="4383"></path><path d="M798.4128 870.9632H232.96l80.8448-119.0912h403.6608z" fill="#F6D95F" p-id="4384"></path><path d="M313.8048 762.1632h403.6608l74.0352 108.8512h6.912l-80.9472-119.04H313.8048L232.96 871.0144h6.9632z" fill="#FFFFFF" p-id="4385"></path><path d="M243.4048 855.6544l-10.24 15.36h565.248l-10.24-15.36z" fill="#EAB943" p-id="4386"></path><path d="M729.1904 519.5776a138.24 138.24 0 0 0-28.7232-32.512c-1.8944-1.5872-3.84-3.072-5.7856-4.5056A137.1136 137.1136 0 0 0 476.16 592.9984c0 31.4368 23.6544 71.68 51.2 108.1856 2.1504 2.8672 4.3008 5.632 6.5024 8.448 4.352 5.4784 8.704 10.8544 13.1072 16.0768s9.0112 10.5984 13.4144 15.36c14.9504 16.896 28.8256 31.232 38.6048 40.96a20.0704 20.0704 0 0 0 28.3648 0c35.072-34.9696 122.88-128.6656 122.88-189.44a135.68 135.68 0 0 0-21.0432-73.0112zM613.376 767.488a861.952 861.952 0 0 1-38.8096-41.3696c47.5136-52.0704 102.9632-119.04 142.7968-185.9072a115.2512 115.2512 0 0 1 12.6976 52.7872c0 42.8032-60.2112 118.1696-116.6848 174.4896z" fill="#EA6381" p-id="4387"></path><path d="M739.84 498.9952a154.9312 154.9312 0 0 0-14.3872-16.7424 148.48 148.48 0 0 0-15.9232-14.08c-1.792-1.3824-3.584-2.7136-5.4272-3.9936A157.4912 157.4912 0 0 0 455.68 592.9984c0 37.1712 26.112 82.432 57.4976 123.392 2.1504 2.816 4.352 5.632 6.6048 8.3968 4.2496 5.4272 8.6528 10.8032 13.056 15.9744s9.0112 10.5472 13.5168 15.36c13.568 15.36 26.8288 29.0816 38.2464 40.448a40.6528 40.6528 0 0 0 57.344 0c48.1792-48.0256 128.9728-138.24 128.9728-203.776a156.5184 156.5184 0 0 0-31.0784-93.7984z m-178.688 211.456c-4.5056-5.4272-8.8576-10.8032-13.056-16.1792l-6.3488-8.192c-26.3168-35.1232-45.0048-69.0688-45.0048-92.928A116.7872 116.7872 0 0 1 613.376 476.16a115.5072 115.5072 0 0 1 71.0656 24.2688c2.0992 1.536 4.1472 3.2256 6.0928 5.12a113.664 113.664 0 0 1 14.6432 15.36 116.736 116.736 0 0 1 24.8832 71.68c0 42.8032-60.2112 118.1696-116.6848 174.4896a861.952 861.952 0 0 1-38.8096-41.3696c-4.608-4.7616-9.0624-10.0352-13.4144-15.2576z" fill="#692F76" p-id="4388"></path><path d="M730.0608 592.9984c0 42.8032-60.2112 118.1696-116.6848 174.4896a861.952 861.952 0 0 1-38.8096-41.3696c47.5136-52.0704 102.9632-119.04 142.7968-185.9072a115.2512 115.2512 0 0 1 12.6976 52.7872z" fill="#EA6381" p-id="4389"></path><path d="M730.0608 592.9984c0 42.8032-60.2112 118.1696-116.6848 174.4896a861.952 861.952 0 0 1-38.8096-41.3696c47.5136-52.0704 102.9632-119.04 142.7968-185.9072a115.2512 115.2512 0 0 1 12.6976 52.7872z" fill="#EA6381" p-id="4390"></path><path d="M730.0608 592.9984c0 42.8032-60.2112 118.1696-116.6848 174.4896a861.952 861.952 0 0 1-38.8096-41.3696c47.5136-52.0704 102.9632-119.04 142.7968-185.9072a115.2512 115.2512 0 0 1 12.6976 52.7872z" fill="#EA6381" p-id="4391"></path><path d="M613.376 752.128c-10.6496-10.6496-21.4528-21.9648-31.8976-33.6384l-6.912 7.6288c12.5952 14.3872 25.6 28.3648 38.8096 41.3696 56.32-56.32 116.6848-131.6864 116.6848-174.4896 0-3.1232 0-6.2464-0.4096-9.3184-5.12 43.6224-62.3616 114.688-116.2752 168.448z" fill="#CB4E67" p-id="4392"></path><path d="M469.4016 106.9056a281.1392 281.1392 0 0 0-281.1392 281.1392c0 124.3136 180.1728 316.3648 252.0064 388.0448a40.96 40.96 0 0 0 58.2144 0c71.68-71.68 252.0576-263.7312 252.0576-388.0448a281.1904 281.1904 0 0 0-281.1392-281.1392z m14.6432 654.6944a20.48 20.48 0 0 1-29.2864 0c-57.7024-57.5488-245.76-254.6176-245.76-373.76a260.6592 260.6592 0 1 1 521.3184 0c-0.256 119.04-188.5696 316.2112-246.272 373.76z" fill="#F6D95F" p-id="4393"></path><path d="M469.4016 86.4256a302.08 302.08 0 0 0-301.6192 301.6192c0 131.072 180.48 325.1712 258.048 402.5856a61.8496 61.8496 0 0 0 87.04 0c9.728-9.728 21.0944-21.248 33.536-34.304 4.5568-4.8128 9.2672-9.7792 14.1312-15.0016l13.9776-15.36c47.5136-52.0704 102.9632-119.04 142.7968-185.9072 4.1472-6.8608 8.0896-13.7728 11.8272-20.48s7.3216-13.7728 10.6496-20.48c19.1488-39.1168 31.1808-77.1584 31.1808-110.9504a302.08 302.08 0 0 0-301.568-301.7216z m231.0656 400.64c-3.1232 6.144-6.4 12.288-9.9328 18.4832-37.5296 66.56-95.1808 136.448-142.4384 188.7232-4.7616 5.12-9.472 10.24-14.0288 15.36s-9.6256 10.24-14.1824 15.36c-14.336 15.36-26.7264 27.7504-35.84 36.8128a20.48 20.48 0 0 1-29.2864 0c-57.7024-57.5488-245.76-254.6176-245.76-373.76v-10.24a260.608 260.608 0 0 1 520.8064 0c0 3.328 0.256 6.656 0.256 10.24 0 24.1152-7.7312 51.2-20.48 80.128-3.0208 6.2464-5.888 12.544-9.1136 18.8928z" fill="#692F76" p-id="4394"></path><path d="M469.4016 127.3856a261.12 261.12 0 0 0-260.6592 260.6592c0 118.9376 188.3136 316.0064 245.76 373.76a20.48 20.48 0 0 0 29.2864 0c57.7024-57.5488 246.016-254.6176 246.016-373.76a261.12 261.12 0 0 0-260.4032-260.6592z m0 285.7984A68.4544 68.4544 0 1 1 537.6 344.7296 68.5056 68.5056 0 0 1 469.4016 413.184z" fill="#F6D95F" p-id="4395"></path><path d="M484.0448 746.24a20.48 20.48 0 0 1-29.2864 0c-56.832-56.7296-240.384-248.832-245.76-368.2304v10.24c0 118.9376 188.3136 316.0064 245.76 373.76a20.48 20.48 0 0 0 29.2864 0c57.7024-57.5488 246.016-254.6176 246.016-373.76 0-3.3792 0-6.7072-0.256-10.24-5.376 119.3984-188.928 311.5008-245.76 368.2304z" fill="#EAB943" p-id="4396"></path><path d="M469.4016 142.7456a261.12 261.12 0 0 1 260.4032 250.88c0-1.792 0.256-3.584 0.256-5.12a260.6592 260.6592 0 1 0-521.3184 0v5.12a261.12 261.12 0 0 1 260.6592-250.88z" fill="#FFFFFF" p-id="4397"></path><path d="M469.4016 235.52A109.4144 109.4144 0 1 0 578.56 344.7296 109.5168 109.5168 0 0 0 469.4016 235.52z m0 177.8176A68.4544 68.4544 0 1 1 537.6 344.7296 68.5056 68.5056 0 0 1 469.4016 413.184z" fill="#EB637C" p-id="4398"></path><path d="M537.6 344.7296A68.4032 68.4032 0 1 1 469.4016 276.48 68.5568 68.5568 0 0 1 537.6 344.7296z" fill="#F6D95F" p-id="4399"></path><path d="M469.4016 291.84A68.5056 68.5056 0 0 1 537.6 352.4096a63.1296 63.1296 0 0 0 0.4608-7.68 68.4032 68.4032 0 1 0-136.8064 0 63.1296 63.1296 0 0 0 0.4608 7.68A68.5056 68.5056 0 0 1 469.4016 291.84z" fill="#FFFFFF" p-id="4400"></path><path d="M469.4016 397.824a68.5568 68.5568 0 0 1-67.9424-60.7744 63.1296 63.1296 0 0 0-0.4608 7.68 68.4032 68.4032 0 1 0 136.8064 0 63.1296 63.1296 0 0 0-0.4608-7.68A68.5568 68.5568 0 0 1 469.4016 397.824z" fill="#EAB943" p-id="4401"></path><path d="M410.0096 843.4176h-98.816a22.272 22.272 0 0 1-22.528-19.6096 21.4528 21.4528 0 0 1 21.4016-23.3984h98.816a22.2208 22.2208 0 0 1 22.528 19.5584 21.504 21.504 0 0 1-21.4016 23.4496z" fill="#F3A175" p-id="4402"></path></svg>