<?xml version="1.0" standalone="no"?><!DOCTYPE svg PUBLIC "-//W3C//DTD SVG 1.1//EN" "http://www.w3.org/Graphics/SVG/1.1/DTD/svg11.dtd"><svg t="1567074985839" class="icon" viewBox="0 0 1024 1024" version="1.1" xmlns="http://www.w3.org/2000/svg" p-id="18398" xmlns:xlink="http://www.w3.org/1999/xlink" width="200" height="200"><defs><style type="text/css"></style></defs><path d="M510.303 515.554m-447.659 0a447.659 447.659 0 1 0 895.318 0 447.659 447.659 0 1 0-895.318 0Z" fill="#76C2AF" p-id="18399"></path><path d="M470.084 690.421c-6.79 0-13.19-3.292-17.138-8.88L309.097 477.889 200.188 550.5c-9.659 6.435-22.678 3.825-29.099-5.82-6.428-9.645-3.825-22.664 5.82-29.099l125.904-83.936c9.447-6.298 22.214-3.935 28.778 5.355l136.157 192.763 150.017-276.358a20.995 20.995 0 0 1 16.776-10.902c7.083-0.533 13.955 2.473 18.293 8.115l181.862 236.07c7.07 9.18 5.362 22.35-3.818 29.427-9.18 7.063-22.343 5.369-29.434-3.825L639.268 401.767 488.527 679.451a20.989 20.989 0 0 1-17.207 10.929c-0.416 0.027-0.826 0.041-1.236 0.041z" fill="#FFFFFF" p-id="18400"></path><path d="M636.207 391.398m-61.203 0a61.203 61.203 0 1 0 122.406 0 61.203 61.203 0 1 0-122.406 0Z" fill="#C75C5C" p-id="18401"></path><path d="M470.084 718.399c-6.79 0-13.19-3.292-17.138-8.88L309.097 505.875l-108.909 72.604c-9.659 6.421-22.678 3.812-29.099-5.82-6.428-9.645-3.825-22.671 5.82-29.099l125.904-83.936c9.454-6.332 22.22-3.935 28.778 5.355l136.157 192.757 150.017-276.351a20.981 20.981 0 0 1 16.776-10.902c7.063-0.594 13.955 2.486 18.293 8.108l181.862 236.07c7.07 9.18 5.362 22.357-3.818 29.434-9.174 7.077-22.336 5.376-29.434-3.818L639.268 429.753 488.527 707.429a20.996 20.996 0 0 1-17.207 10.936c-0.416 0.021-0.826 0.034-1.236 0.034z" fill="#231F20" p-id="18402"></path><path d="M470.084 690.421c-6.79 0-13.19-3.292-17.138-8.88L309.097 477.889 200.188 550.5c-9.659 6.435-22.678 3.825-29.099-5.82-6.428-9.645-3.825-22.664 5.82-29.099l125.904-83.936c9.447-6.298 22.214-3.935 28.778 5.355l136.157 192.763 150.017-276.358a20.995 20.995 0 0 1 16.776-10.902c7.083-0.533 13.955 2.473 18.293 8.115l181.862 236.07c7.07 9.18 5.362 22.35-3.818 29.427-9.18 7.063-22.343 5.369-29.434-3.825L639.268 401.767 488.527 679.451a20.989 20.989 0 0 1-17.207 10.929c-0.416 0.027-0.826 0.041-1.236 0.041z" fill="#FFFFFF" p-id="18403"></path><path d="M636.207 419.377m-61.203 0a61.203 61.203 0 1 0 122.406 0 61.203 61.203 0 1 0-122.406 0Z" fill="#231F20" p-id="18404"></path><path d="M636.207 391.398m-61.203 0a61.203 61.203 0 1 0 122.406 0 61.203 61.203 0 1 0-122.406 0Z" fill="#4F5D73" p-id="18405"></path></svg>